# xmcd CD database file
#
# Track frame offsets:
#	150
#	14402
#	34910
#
# Disc length: 688 seconds
#
# Revision: 0
# Processed by: cddbd v1.5.1PL0 Copyright (c) Steve Scherf et al.
# Submitted via: CDex 1.51
#
DISCID=1d02ae03
DTITLE=ゆらゆら帝国 - 発光体
DYEAR=1998
DGENRE=Rock
TTITLE0=発光体
TTITLE1=いたずら小僧
TTITLE2=彼女のサソリ[Single Version]
EXTD=YEAR: 1998
EXTT0=
EXTT1=
EXTT2=
PLAYORDER=
